<?xml version="1.0" encoding="UTF-8" standalone="no"?>
<svg
   width="2145"
   height="370"
   viewBox="0 0 2145 370"
   fill="none"
   version="1.1"
   id="svg25"
   sodipodi:docname="kal-labs.svg"
   inkscape:version="1.2.2 (b0a8486541, 2022-12-01)"
   inkscape:export-filename="kal-labs.png"
   inkscape:export-xdpi="26.853148"
   inkscape:export-ydpi="26.853148"
   xmlns:inkscape="http://www.inkscape.org/namespaces/inkscape"
   xmlns:sodipodi="http://sodipodi.sourceforge.net/DTD/sodipodi-0.dtd"
   xmlns="http://www.w3.org/2000/svg"
   xmlns:svg="http://www.w3.org/2000/svg">
  <sodipodi:namedview
     id="namedview27"
     pagecolor="#ffffff"
     bordercolor="#000000"
     borderopacity="0.25"
     inkscape:showpageshadow="2"
     inkscape:pageopacity="0.0"
     inkscape:pagecheckerboard="0"
     inkscape:deskcolor="#d1d1d1"
     showgrid="false"
     inkscape:zoom="0.16132941"
     inkscape:cx="226.24517"
     inkscape:cy="-111.57296"
     inkscape:window-width="2226"
     inkscape:window-height="1215"
     inkscape:window-x="0"
     inkscape:window-y="0"
     inkscape:window-maximized="1"
     inkscape:current-layer="svg25" />
  <defs
     id="defs23">
    <clipPath
       clipPathUnits="userSpaceOnUse"
       id="clipPath5578">
      <g
         id="g5582">
        <rect
           width="1745"
           height="370"
           fill="#ffffff"
           id="rect5580"
           x="0"
           y="0" />
      </g>
    </clipPath>
    <clipPath
       clipPathUnits="userSpaceOnUse"
       id="clipPath5584">
      <g
         id="g5588">
        <rect
           width="1745"
           height="370"
           fill="#ffffff"
           id="rect5586"
           x="0"
           y="0" />
      </g>
    </clipPath>
    <clipPath
       clipPathUnits="userSpaceOnUse"
       id="clipPath5590">
      <g
         id="g5594">
        <rect
           width="1745"
           height="370"
           fill="#ffffff"
           id="rect5592"
           x="0"
           y="0" />
      </g>
    </clipPath>
    <clipPath
       clipPathUnits="userSpaceOnUse"
       id="clipPath5596">
      <g
         id="g5600">
        <rect
           width="1745"
           height="370"
           fill="#ffffff"
           id="rect5598"
           x="0"
           y="0" />
      </g>
    </clipPath>
    <clipPath
       clipPathUnits="userSpaceOnUse"
       id="clipPath5602">
      <g
         id="g5606">
        <rect
           width="1745"
           height="370"
           fill="#ffffff"
           id="rect5604"
           x="0"
           y="0" />
      </g>
    </clipPath>
    <clipPath
       clipPathUnits="userSpaceOnUse"
       id="clipPath5608">
      <g
         id="g5612">
        <rect
           width="1745"
           height="370"
           fill="#ffffff"
           id="rect5610"
           x="0"
           y="0" />
      </g>
    </clipPath>
    <clipPath
       clipPathUnits="userSpaceOnUse"
       id="clipPath5614">
      <g
         id="g5618">
        <rect
           width="1745"
           height="370"
           fill="#ffffff"
           id="rect5616"
           x="0"
           y="0" />
      </g>
    </clipPath>
    <clipPath
       clipPathUnits="userSpaceOnUse"
       id="clipPath5620">
      <g
         id="g5624">
        <rect
           width="1745"
           height="370"
           fill="#ffffff"
           id="rect5622"
           x="0"
           y="0" />
      </g>
    </clipPath>
  </defs>
  <g
     id="g10428"
     transform="matrix(0.78773534,0,0,0.78773534,-299.09148,91.275754)"
     style="fill:#000000">
    <path
       id="path5626"
       style="font-size:357.764px;font-family:Helvetica;-inkscape-font-specification:Helvetica;fill:#000000;stroke-width:14.0887"
       d="m 2533.1181,-73.378967 c -9.5593,-0.0067 -17.3023,7.719187 -17.309,17.27847 -0.014,9.546702 7.7107,17.295648 17.2633,17.308971 9.5526,0.0126 17.2964,-7.735177 17.309,-17.29372 0.013,-9.547441 -7.7166,-17.28706 -17.2633,-17.293721 z m -1136.2158,4.834311 c -26.7782,0 -41.8617,16.758968 -41.8617,39.1015 0,22.3425319 14.6047,39.1014978 41.8617,39.1014978 27.2572,0 42.3345,-16.7589659 42.3345,-39.1014978 0,-22.342532 -15.5562,-39.1015 -42.3345,-39.1015 z M 389.82524,-56.863007 V 304.74961 h 78.37075 v -102.0848 l 43.8138,-49.77664 95.40523,151.86144 h 91.01316 L 563.1132,92.451653 693.56336,-56.863007 H 602.5502 L 468.19599,104.13331 V -56.863007 Z m 589.93852,0 V 304.74961 h 74.46674 V -56.863007 Z M 2547.316,-28.543395 c -6.7192,-0.01924 -12.1782,5.410572 -12.1849,12.123906 -0.013,6.7199939 5.4344,12.1656609 12.1544,12.1849039 6.7075,0 12.1638,-5.43441 12.1697,-12.1544049 0.013,-6.706672 -5.4258,-12.154405 -12.1392,-12.154405 z m -381.6971,9.42462 V 304.58186 h 207.8297 v -38.766 H 2209.3412 V -19.118775 Z m 493.2065,0 V 304.58186 h 37.424 v -29.31088 h 0.8997 c 2.7051,4.20783 5.5651,8.27765 8.5707,12.18491 3.3062,3.90727 7.5176,7.6632 12.6272,11.2699 5.1095,3.6067 11.2698,6.60839 18.4832,9.01286 7.5139,2.40446 15.9218,3.59904 25.2391,3.59904 19.2357,0 35.6262,-3.89762 49.1514,-11.71215 13.5251,-8.11507 24.1956,-18.64388 32.0101,-31.5679 8.1151,-12.92401 13.8198,-27.03654 17.126,-42.36504 3.6067,-15.32848 5.4138,-30.66609 5.4138,-45.99458 0,-34.26367 -8.7217,-62.36229 -26.1541,-84.303073 -17.4325,-22.241327 -41.4765,-33.367428 -72.1334,-33.367428 -28.8536,0.601106 -51.5461,12.78008 -68.0769,36.524218 h -0.8998 V -19.118775 Z m -145.1056,9.7906259 c -5.6216,-0.0067 -10.1812,4.556956 -10.1871,10.17187997 -8e-4,5.62158293 4.5562,10.17187913 10.1718,10.17187913 5.6217,0.01332 10.172,-4.5417072 10.172,-10.15662913 0.013,-5.62158497 -4.5417,-10.18046897 -10.1567,-10.18712997 z m -39.7114,35.1669501 -0.076,82.229049 c -0.014,10.99817 -3.1299,21.78012 -8.9824,31.09515 l -69.2817,110.10641 c -3.7326,5.93615 -5.612,12.71201 -5.612,19.48975 0,6.07678 1.5061,12.17818 4.5445,17.69022 6.4499,11.67839 18.7102,18.92815 32.0407,18.94074 l 182.6363,0.19825 h 0.015 c 0.4943,0 0.7406,-0.0305 0.7471,-0.0305 l -0.015,-0.0305 c 13.0352,-0.2561 24.9763,-7.38121 31.3239,-18.8035 v -0.0153 c 3.0643,-5.52462 4.5904,-11.64853 4.5904,-17.75123 0,-6.75182 -1.8749,-13.50591 -5.5816,-19.42874 l -69.0224,-110.25891 c -5.8266,-9.31503 -8.9214,-20.0638 -8.9214,-31.0494 l 0.092,-82.305297 z M 828.86309,37.596695 c -80.80108,0 -113.9037,35.046196 -113.9037,89.396645 h 73.99394 c 2.4447,-23.36325 15.58187,-35.044943 40.88577,-35.044943 25.30389,0 38.44575,12.702413 38.44575,35.044943 0,11.17757 -5.83293,17.78116 -26.7641,19.81001 l -53.54343,4.57506 c -64.23445,5.58177 -86.63063,38.60453 -86.63635,79.22475 0.006,48.25483 31.65306,79.22476 91.51641,79.22476 41.86232,0 65.21779,-14.22733 79.33152,-41.64827 0,17.2641 3.90344,27.43385 10.72088,36.56996 h 67.64986 c -4.86419,-8.63205 -7.77759,-31.4909 -7.77759,-67.03985 V 126.99334 c 0,-54.350449 -33.11788,-89.396645 -113.91896,-89.396645 z m 1047.96281,0 c -34.0745,0 -53.549,19.306224 -66.201,44.698332 V 42.67502 h -70.5779 v 262.04409 h 71.0658 v -148.8114 c 0,-37.07374 18.502,-55.86145 41.3738,-55.86145 19.4694,0 30.1801,13.71112 30.1801,44.69831 v 159.98979 h 71.0507 V 155.92297 c 0,-37.07374 18.9809,-55.86147 41.3738,-55.86147 19.9609,0 30.1801,13.71114 30.1801,44.69832 v 159.98979 h 0.015 71.5539 V 131.55315 c 0,-63.486563 -26.7613,-93.956455 -78.8436,-93.956455 -34.0744,0 -57.9411,18.787948 -70.5931,45.704844 -11.2028,-30.974597 -34.5627,-45.704844 -70.5779,-45.704844 z m -805.073,5.078325 90.0524,262.07459 h 0.015 90.5252 L 1342.398,42.67502 h -77.3949 l -57.9353,195.03474 -57.9203,-195.03474 z m 288.1525,0 v 262.07459 h 74.4666 V 42.67502 Z m 111.4484,0 v 173.19646 c 0,63.48657 29.1985,93.95644 86.6363,93.95644 39.9217,0 61.3386,-19.30621 74.482,-44.69831 v 39.62 H 1703.05 V 42.67502 h -74.4668 v 146.27986 c 0,37.5904 -18.499,58.40825 -46.7265,58.40825 -25.3039,0 -36.0209,-16.25607 -36.0209,-46.7266 V 42.67502 Z m 1023.9895,4.529302 45.7811,0.06099 -0.077,60.878778 v 0.0152 0.061 c 0,14.99435 4.2319,29.6664 12.185,42.3803 l 69.0223,110.2589 c 1.5485,2.46698 2.3274,5.27707 2.3333,8.09785 0,2.55136 -0.6358,5.09191 -1.9215,7.41159 -2.6853,4.85034 -7.7993,7.86718 -13.3439,7.85386 -0.058,0 -0.068,0.0152 -0.1071,0.0152 l -182.5447,-0.19824 c -5.5514,-0.006 -10.6873,-3.03596 -13.3592,-7.8996 -1.279,-2.31303 -1.8911,-4.83715 -1.8911,-7.3811 0,-2.83337 0.7724,-5.6328 2.3333,-8.11311 l 69.2665,-110.1064 c 8.0049,-12.72055 12.2352,-27.43822 12.261,-42.4718 z m 499.3677,14.823197 c -25.247,0 -45.9907,6.01864 -62.2208,18.040978 -8.4157,6.612274 -15.0316,14.721437 -19.8405,24.339303 -4.809,9.31733 -7.2134,20.28646 -7.2134,32.90993 0,15.62903 4.6671,28.10666 13.9845,37.42397 9.6178,9.01676 23.1331,15.63269 40.5655,19.8405 l 45.9945,11.2699 c 17.7331,4.50838 29.8967,9.01854 36.509,13.52692 6.913,4.50839 10.3702,11.26601 10.3702,20.28276 0,12.32291 -5.2492,21.64188 -15.7687,27.95361 -10.219,6.31173 -22.9953,9.47037 -38.3237,9.47037 -12.9242,0 -23.5945,-1.50847 -32.0102,-4.51405 -8.4156,-3.0056 -14.8747,-6.91847 -19.383,-11.72741 -4.2079,-5.10949 -7.0678,-10.06 -8.5707,-14.86894 -1.2022,-5.10949 -2.1134,-10.82949 -2.7145,-17.14121 h -38.3085 c 0.3006,9.61787 1.4951,18.79515 3.599,27.51134 2.4045,8.71621 6.9148,17.42263 13.5271,26.13884 6.9127,8.41563 17.1276,15.33022 30.6529,20.74027 13.8256,5.41004 31.7094,8.11309 53.6501,8.11309 27.3509,0 49.7447,-7.05627 67.1771,-21.18252 17.4323,-14.12624 26.1541,-33.06285 26.1541,-56.80697 0,-16.23016 -4.9657,-29.14813 -14.8842,-38.766 -9.9184,-9.61786 -27.0479,-17.44362 -51.3931,-23.45479 l -39.6658,-9.91263 c -16.8313,-4.20783 -28.256,-8.2624 -34.2672,-12.16965 -5.7106,-3.90727 -8.5707,-10.36624 -8.5707,-19.38301 0,-6.91284 1.6502,-12.63283 4.9563,-17.14121 3.6067,-4.50838 7.9753,-7.96567 13.0847,-10.37013 5.1096,-2.404466 10.217,-3.897687 15.3266,-4.498806 5.1094,-0.901679 9.6196,-1.357276 13.5268,-1.357276 11.7218,0 21.3394,1.351529 28.8534,4.056552 7.8145,2.40447 13.5192,5.70481 17.1259,9.91264 3.9073,3.90726 6.4688,7.97708 7.671,12.18489 1.2022,4.20782 1.9411,8.71799 2.2417,13.52692 h 38.3237 c 0,-5.10949 -1.0529,-11.42676 -3.1567,-18.94074 -1.8034,-7.81451 -5.7011,-15.92367 -11.7123,-24.339303 -6.011,-8.415633 -15.1884,-15.644111 -27.5113,-21.65528 -12.3228,-6.011168 -28.2425,-9.012858 -47.7788,-9.012858 z m -234.4413,35.624455 c 14.4269,0 25.9933,3.001686 34.7095,9.012856 9.0167,5.71062 15.6327,13.22248 19.8405,22.53979 4.2078,9.01676 6.9108,18.17878 8.1131,27.4961 1.2022,9.31731 1.7995,19.09189 1.7995,29.31088 0,27.35082 -5.4061,49.44606 -16.2261,66.27734 -10.8202,16.53072 -26.5981,24.79682 -47.3366,24.79682 -6.913,0 -14.1261,-1.20983 -21.6402,-3.6143 -7.2132,-2.70503 -14.128,-7.05825 -20.7402,-13.06941 -6.6122,-6.31173 -12.0184,-14.57782 -16.2262,-24.79682 -3.9072,-10.51954 -5.8561,-23.13886 -5.8561,-37.86624 0,-11.72177 0.739,-23.00481 2.2419,-33.82492 1.5027,-11.12067 4.3627,-21.79118 8.5705,-32.01017 4.5085,-10.21899 10.9674,-18.46983 19.383,-24.78156 8.7162,-6.31174 19.8423,-9.470366 33.3674,-9.470366 z m -275.3879,85.248586 c -1.4908,0 -2.8756,0.74734 -3.6602,2.01303 l -47.6415,75.71721 c -0.8356,1.33601 -0.8867,3.01163 -0.1223,4.39206 0.7579,1.38115 2.2077,2.24178 3.782,2.24178 l 161.5149,0.16775 c 1.5735,0.006 3.026,-0.84612 3.7972,-2.22653 0.7588,-1.38116 0.7044,-3.04746 -0.1372,-4.37681 l -47.4586,-75.83921 c -0.7831,-1.26569 -2.176,-2.02829 -3.66,-2.02829 z m -1616.5817,1.47926 v 14.7317 h 0.0152 c 0,31.9953 -19.46888,58.91149 -53.54344,58.91149 -27.25713,0 -38.94899,-13.20704 -38.94899,-33.01666 0,-16.24339 10.71239,-27.92439 38.46098,-30.46989 l 27.2521,-2.02828 c 13.62226,-1.52479 23.36168,-4.07066 26.7641,-8.12836 z m 1634.1041,17.11072 c 6.3211,0 11.4377,5.10254 11.4377,11.43765 0,6.30846 -5.1159,11.43765 -11.4377,11.43765 -6.321,0 -11.4529,-5.12845 -11.4529,-11.43765 0,-6.33436 5.1319,-11.43765 11.4529,-11.43765 z m 36.6157,32.80318 c 4.2145,0 7.6251,3.41057 7.6251,7.62509 0,4.20786 -3.4112,7.62509 -7.6251,7.62509 -4.2146,0 -7.6251,-3.41649 -7.6251,-7.62509 0,-4.21452 3.4105,-7.62509 7.6251,-7.62509 z" />
    <g
       id="g7224"
       transform="matrix(0.58736394,0,0,0.58736394,1928.2768,30.828233)"
       style="font-size:357.764px;font-family:Helvetica;-inkscape-font-specification:Helvetica;fill:#000000;stroke-width:11.1801;stop-color:#000000" />
  </g>
</svg>
